<?xml version="1.0" encoding="iso-8859-1"?>
<!-- Generator: Adobe Illustrator 19.2.1, SVG Export Plug-In . SVG Version: 6.00 Build 0)  -->
<svg version="1.1" xmlns="http://www.w3.org/2000/svg" xmlns:xlink="http://www.w3.org/1999/xlink" x="0px" y="0px"
	 viewBox="0 0 32 32.125" style="enable-background:new 0 0 32 32.125;" xml:space="preserve">
<g id="Layer_36">
	<path style="fill:#95CC29;" d="M10.999,21.627c-0.012,1.139,0.565,2.11,1.347,2.666c0.781,0.568,1.725,0.811,2.657,0.814
		c0.932-0.003,1.875-0.246,2.656-0.814c0.781-0.556,1.358-1.528,1.346-2.667c0.001-0.604-0.123-1.161-0.381-1.63
		c-0.458-0.836-1.242-1.256-1.941-1.488c-1.062-0.346-2.147-0.434-2.821-0.696c-0.338-0.125-0.539-0.264-0.652-0.406
		c-0.11-0.144-0.205-0.327-0.211-0.784c0.012-0.515,0.186-0.784,0.531-1.055c0.345-0.259,0.903-0.429,1.473-0.426
		c0.569-0.003,1.127,0.167,1.472,0.426c0.344,0.271,0.517,0.539,0.53,1.055c0,0.552,0.448,1,1,1c0.552,0,1-0.448,1-1
		c0.013-1.139-0.565-2.111-1.346-2.667c-0.781-0.568-1.724-0.811-2.656-0.814c-0.932,0.003-1.876,0.246-2.657,0.814
		c-0.782,0.556-1.359,1.528-1.347,2.667c-0.001,0.604,0.123,1.161,0.381,1.63c0.458,0.836,1.242,1.256,1.941,1.489
		c1.062,0.346,2.147,0.434,2.821,0.696c0.338,0.125,0.539,0.264,0.652,0.406c0.11,0.144,0.205,0.327,0.211,0.784
		c-0.013,0.516-0.186,0.784-0.53,1.055c-0.345,0.259-0.902,0.429-1.472,0.426c-0.57,0.003-1.127-0.167-1.473-0.426
		c-0.345-0.271-0.518-0.54-0.53-1.054c0-0.552-0.448-1-1-1C11.446,20.627,10.999,21.075,10.999,21.627L10.999,21.627z"/>
	<path style="fill:#95CC29;" d="M14,13.125v1.017c0,0.552,0.448,1,1,1c0.552,0,1-0.448,1-1v-1.017c0-0.552-0.448-1-1-1
		C14.448,12.125,14,12.573,14,13.125"/>
	<path style="fill:#95CC29;" d="M14,24.125v1c0,0.552,0.448,1,1,1c0.552,0,1-0.448,1-1v-1.017c0-0.552-0.448-1-1-1
		c-0.552,0-1,0.448-1,1"/>
	<path style="fill:#666666;" d="M17.993,6.807c1.882-1.702,2.887-4.242,2.93-4.3c0.198-0.48-0.006-1.033-0.467-1.271
		s-1.03-0.081-1.305,0.359c-0.396,0.615-0.914,0.853-1.523,0.864c-0.63,0.001-1.338-0.312-1.845-0.955
		C14.956,0.469,13.705,0.001,12.499,0c-1.207,0.001-2.457,0.469-3.284,1.504C8.989,1.789,8.935,2.17,9.074,2.506
		c0.018,0.04,0.551,1.34,1.506,2.696c0.396,0.559,0.885,1.113,1.441,1.609c-0.582,0.25-1.157,0.542-1.717,0.905
		c-2.245,1.463-4.314,3.751-5.859,6.364c-1.538,2.615-2.557,5.557-2.561,8.382c-0.011,2.566,0.897,5.086,3.065,6.865
		c2.162,1.781,5.436,2.796,10.05,2.797c4.599-0.001,7.867-1.026,10.023-2.82c2.162-1.793,3.066-4.324,3.056-6.903
		c-0.012-3.755-1.774-7.722-4.225-10.833C22.159,9.45,20.138,7.712,17.993,6.807z M11.668,3.2c-0.176-0.299-0.314-0.562-0.431-0.794
		C11.595,2.17,12.016,1.999,12.499,2c0.699-0.001,1.355,0.281,1.716,0.746c0.837,1.056,2.038,1.648,3.264,1.695
		c-0.36,0.458-0.757,0.886-1.163,1.181c-0.465,0.338-0.902,0.504-1.317,0.503c-0.441,0.001-0.912-0.189-1.409-0.573
		C12.849,4.986,12.146,4.019,11.668,3.2z M23.741,27.769c-1.654,1.385-4.426,2.356-8.742,2.356
		c-4.335,0.001-7.119-0.964-8.776-2.339c-1.652-1.376-2.327-3.187-2.338-5.323c-0.012-3.11,1.582-6.799,3.835-9.626
		c1.122-1.415,2.401-2.617,3.675-3.444c1.275-0.831,2.535-1.272,3.605-1.268c2.18-0.037,5.067,1.849,7.286,4.685
		c2.235,2.811,3.805,6.483,3.793,9.592C26.067,24.553,25.39,26.383,23.741,27.769z"/>
	<rect y="0.125" style="fill:none;" width="32" height="32"/>
</g>
<g id="Layer_1">
</g>
</svg>
