<?xml version="1.0" encoding="utf-8"?>
<!-- Generator: Adobe Illustrator 23.1.0, SVG Export Plug-In . SVG Version: 6.00 Build 0)  -->
<svg version="1.1" id="Capa_1" xmlns="http://www.w3.org/2000/svg" xmlns:xlink="http://www.w3.org/1999/xlink" x="0px" y="0px"
	 viewBox="0 0 247.1 247.1" enable-background="new 0 0 247.1 247.1" xml:space="preserve">
<path fill="white" stroke="white" stroke-width="4.025" stroke-miterlimit="10" d="M93.8,160.5c-33.2,0-60.1-26.9-60.1-60.1
	s26.9-60.1,60.1-60.1s60.1,26.9,60.1,60.1S126.9,160.5,93.8,160.5z M93.8,52.4c-26.5,0-48,21.5-48,48s21.5,48,48,48s48-21.5,48-48
	S120.3,52.4,93.8,52.4z"/>
<path d="M145.2,148.5c-0.6,0-1.2-0.2-1.6-0.6l-5.9-5.1c-1.1-0.9-1.2-2.6-0.3-3.7c0.9-1.1,2.5-1.3,3.6-0.3l0,0l5.9,5.1
	c1.1,0.9,1.2,2.6,0.3,3.7c0,0,0,0,0,0C146.7,148.2,146,148.5,145.2,148.5z"/>
<path fill="white" stroke="white" stroke-width="4.025" stroke-miterlimit="10" d="M195.9,207c-4.2,0-8.3-1.5-11.6-4.2L147.5,172
	c-7.6-6.4-8.6-17.8-2.2-25.4c6.4-7.6,17.8-8.6,25.4-2.2l36.8,30.9c7.6,6.4,8.6,17.8,2.2,25.4C206.3,204.7,201.2,207,195.9,207z
	 M159.1,152.1h-0.5c-3.3,0.3-5.8,3.2-5.5,6.5c0.1,1.6,0.9,3.1,2.2,4.1l36.8,30.9c2.5,2.1,6.3,1.8,8.5-0.7c0,0,0,0,0,0
	c1-1.2,1.5-2.8,1.4-4.4c-0.1-1.6-0.9-3.1-2.2-4.1l-36.8-30.9C161.8,152.6,160.5,152.1,159.1,152.1z"/>
</svg>
